Coordinates
version=1
nRows=9
nColumns=24
inDegrees=yes

Units are S.I. units (second, meters, Newtons, ...)
Angles are in degrees.

endheader
time	pelvis_tilt	pelvis_list	pelvis_rotation	pelvis_tx	pelvis_ty	pelvis_tz	hip_flexion_r	hip_adduction_r	hip_rotation_r	knee_angle_r	ankle_angle_r	subtalar_angle_r	mtp_angle_r	hip_flexion_l	hip_adduction_l	hip_rotation_l	knee_angle_l	ankle_angle_l	subtalar_angle_l	mtp_angle_l	lumbar_extension	lumbar_bending	lumbar_rotation
      3.10000000	    -11.03458494	     -3.03534696	      7.35268962	     -1.76642723	     -0.04788201	     -0.29322111	     40.21475887	      0.13147792	     -8.75674069	    -16.24292115	     -1.20895510	      6.80612247	      8.77649308	     -3.84461552	      0.57391093	      8.25430785	    -19.24280953	     21.99916486	     21.14991126	    -10.28034458	     10.52078626	     -1.69086721	    -17.41070167
      3.10500000	    -10.93640549	     -3.38388998	      7.45082357	     -1.75896657	     -0.04889528	     -0.29319997	     40.16351025	      0.41204645	     -9.08377259	    -17.05007718	     -1.64338712	      6.47937995	      8.75636354	     -3.88367819	      0.01247022	      7.70347646	    -20.26782455	     21.95437388	     22.34860610	     -9.79289377	     10.51165337	     -1.18499227	    -17.55279332
      3.11000000	    -10.92980363	     -3.79875703	      7.57260175	     -1.75147153	     -0.04988955	     -0.29321443	     40.19322375	      0.71739405	     -9.47048283	    -17.83116852	     -2.23350206	      6.08804347	      8.82741057	     -3.77387998	     -0.62143116	      7.18591040	    -21.35365847	     21.81422510	     23.55122785	     -9.23162819	     10.62085526	     -0.62315660	    -17.73026014
      3.11500000	    -10.87409411	     -4.13307381	      7.49473980	     -1.74401072	     -0.05076945	     -0.29287486	     40.19594680	      1.10995830	     -9.59493401	    -18.62286717	     -3.04635751	      5.45907714	      9.11837122	     -3.72457852	     -1.22940631	      6.24085588	    -22.42256128	     21.48735461	     25.04518880	     -8.31195716	     10.64506687	     -0.10995109	    -17.67775133
      3.12000000	    -10.88897634	     -4.53396402	      7.48541886	     -1.73655517	     -0.05155759	     -0.29262929	     40.25947041	      1.49381162	     -9.85027146	    -19.39683411	     -3.89302310	      4.86630390	      9.36186823	     -3.54104780	     -1.91408154	      5.41080880	    -23.54483133	     20.99635309	     26.50933383	     -7.23110398	     10.75727638	      0.45213680	    -17.70614220
      3.12500000	    -10.92150883	     -4.94091990	      7.41738532	     -1.72909786	     -0.05222769	     -0.29228630	     40.33907418	      1.93062377	     -9.99377039	    -20.16079112	     -4.79844358	      4.15116396	      9.55872133	     -3.31585503	     -2.62900288	      4.48319254	    -24.67716248	     20.27250129	     27.99947727	     -5.83916231	     10.88860218	      1.02612854	    -17.69140668
      3.13000000	    -10.97920552	     -5.35269344	      7.29767903	     -1.72163507	     -0.05278735	     -0.29184710	     40.44338664	      2.41460237	    -10.04511444	    -20.92355094	     -5.69515477	      3.36290132	      9.66328159	     -3.05374588	     -3.36917325	      3.51340629	    -25.78718087	     19.29342293	     29.49321493	     -4.03040011	     11.03822287	      1.60717179	    -17.64546124
      3.13500000	    -11.07003388	     -5.79068602	      7.17599415	     -1.71408780	     -0.05323860	     -0.29139817	     40.55945281	      2.92924928	    -10.08141073	    -21.66710343	     -6.46478462	      2.55844833	      9.62712975	     -2.71958909	     -4.15591755	      2.52680941	    -26.92380251	     18.03712586	     30.95192345	     -1.92155483	     11.24779454	      2.20677231	    -17.59229886
      3.14000000	    -11.13089087	     -6.15513198	      7.10180739	     -1.70674116	     -0.05351106	     -0.29093414	     40.65861843	      3.36020135	    -10.04365285	    -22.46425753	     -7.10234651	      1.83770881	      9.47797570	     -2.37360334	     -4.89267493	      1.62837555	    -28.03952029	     16.42702067	     32.47033405	      0.84348535	     11.37437807	      2.70981379	    -17.61420391
